<?xml version="1.0" encoding="utf-8"?>
<!-- Generator: Adobe Illustrator 27.4.1, SVG Export Plug-In . SVG Version: 6.00 Build 0)  -->
<svg version="1.1" id="Layer_1" xmlns="http://www.w3.org/2000/svg" xmlns:xlink="http://www.w3.org/1999/xlink" x="0px" y="0px"
	 viewBox="0 0 100 100" style="enable-background:new 0 0 100 100;" xml:space="preserve">
<style type="text/css">
	.st0{fill:#FFFFFF;}
	.st1{fill:#DD4814;}
</style>
<circle class="st0" cx="50" cy="50" r="50"/>
<g>
	<path class="st1" d="M20.9,59.3c2.1,0,4.2-0.6,5.9-1.8c1.8-1.2,3.1-2.8,3.9-4.8s1-4.1,0.6-6.2c-0.4-2.1-1.4-4-2.9-5.5
		c-1.5-1.5-3.4-2.5-5.5-2.9c-2.1-0.4-4.2-0.2-6.2,0.6c-2,0.8-3.6,2.2-4.8,3.9c-1.2,1.8-1.8,3.8-1.8,5.9c0,1.4,0.3,2.8,0.8,4.1
		s1.3,2.5,2.3,3.5C15.3,58.1,18.1,59.3,20.9,59.3z"/>
	<path class="st1" d="M65.6,35.8c2.1,0,4.2-0.6,5.9-1.8c1.8-1.2,3.1-2.8,3.9-4.8c0.8-2,1-4.1,0.6-6.2c-0.4-2.1-1.4-4-2.9-5.5
		c-1.5-1.5-3.4-2.5-5.5-2.9c-2.1-0.4-4.2-0.2-6.2,0.6c-2,0.8-3.6,2.2-4.8,3.9c-1.2,1.8-1.8,3.8-1.8,5.9c0,1.4,0.3,2.8,0.8,4.1
		c0.5,1.3,1.3,2.5,2.3,3.5c1,1,2.2,1.8,3.5,2.3C62.8,35.5,64.2,35.8,65.6,35.8z"/>
	<path class="st1" d="M45.1,76.2c-7.7-1.7-14.2-6.6-17.8-13.6c-2.9,1.3-6.1,1.7-9.2,1.1c4.4,10.8,13.7,18.6,25.2,21.1
		c2.5,0.5,5,0.8,7.6,0.8c-2-2.6-3.1-5.7-3.2-9C46.8,76.5,45.9,76.4,45.1,76.2L45.1,76.2z"/>
	<path class="st1" d="M63.2,87c2.1,0,4.2-0.6,5.9-1.8c1.8-1.2,3.1-2.8,3.9-4.8c0.8-2,1-4.1,0.6-6.2c-0.4-2.1-1.4-4-2.9-5.5
		c-1.5-1.5-3.4-2.5-5.5-2.9c-2.1-0.4-4.2-0.2-6.2,0.6c-2,0.8-3.6,2.2-4.8,3.9c-1.2,1.8-1.8,3.8-1.8,5.9c0,2.8,1.1,5.6,3.1,7.6
		C57.6,85.8,60.3,87,63.2,87z"/>
	<path class="st1" d="M78.1,72.3c3.4-4.2,5.7-9.2,6.8-14.5c1-4.6,1-9.3,0.2-13.9c-0.9-4.6-2.7-9-5.2-12.9c-1.2,2.9-3.3,5.4-6,7.1
		c2.1,4,3.2,8.6,3,13.2c-0.2,4.6-1.5,9-3.9,12.9C75.4,66.3,77.2,69.1,78.1,72.3L78.1,72.3z"/>
	<path class="st1" d="M20.1,33.2h0.8c1.1,0,2.2,0.1,3.3,0.3c1.7,0.4,3.4,1,4.9,2c2.4-3.4,5.5-6.2,9.2-8.2c3.7-2,7.7-3,11.9-3.1
		c0-0.8,0.1-1.6,0.3-2.4c0.5-2.3,1.5-4.4,2.9-6.3C39.9,14.5,26.8,21.5,20.1,33.2L20.1,33.2z"/>
</g>
</svg>
